<svg width="217" height="130" viewBox="0 0 217 130" fill="none" xmlns="http://www.w3.org/2000/svg">
<g clip-path="url(#clip0_1_102)">
<rect width="50" height="50" transform="translate(40 40)" fill="#FF6A19"/>
<path d="M98.7031 72.6231C98.6528 72.9744 98.5773 73.3257 98.4766 73.677C97.5705 77.2907 95.2298 79.0975 91.4545 79.0975C91.0015 79.0975 90.5233 79.0724 90.0199 79.0222C84.7344 78.5203 82.0917 74.4801 82.0917 66.9015V47.8548H76.8818H71.6718V76.312H74.39C74.6921 76.312 74.9689 76.3371 75.2206 76.3873C75.875 76.4876 76.2022 77.115 76.2022 78.2693H57.7031V76.312C58.3575 76.312 58.9364 76.2618 59.4398 76.1614C61.2016 75.8603 62.0825 74.6055 62.0825 72.3972V47.8548H57.7031V45.8975H97.042V47.8548H91.681V72.5478C91.681 72.9493 91.681 73.3508 91.681 73.7523C91.832 76.0108 92.4613 77.1401 93.5687 77.1401C93.7197 77.1401 93.8959 77.115 94.0972 77.0648C95.6074 76.6131 96.5638 75.0071 96.9665 72.2467L98.7031 72.6231Z" fill="#2B1204"/>
<path d="M57.068 86.9912C56.7436 86.9912 56.4768 86.8975 56.2677 86.71C56.0658 86.5153 55.9648 86.2774 55.9648 85.9962C55.9648 85.7078 56.0658 85.4662 56.2677 85.2715C56.4768 85.0768 56.7436 84.9795 57.068 84.9795C57.3853 84.9795 57.6449 85.0768 57.8468 85.2715C58.0559 85.4662 58.1604 85.7078 58.1604 85.9962C58.1604 86.2774 58.0559 86.5153 57.8468 86.71C57.6449 86.8975 57.3853 86.9912 57.068 86.9912Z" fill="#BD4402"/>
<path d="M53.8458 86.9014L52.6886 85.225L51.7151 86.9014H49.7142L51.7043 83.8189L49.6602 80.8662H51.7368L52.8941 82.5318L53.8675 80.8662H55.8684L53.8458 83.9054L55.9225 86.9014H53.8458Z" fill="#BD4402"/>
<path d="M43 83.8766C43 83.2565 43.1154 82.7121 43.3461 82.2434C43.584 81.7747 43.9049 81.4142 44.3087 81.1619C44.7125 80.9095 45.1631 80.7833 45.6607 80.7833C46.0572 80.7833 46.4178 80.8662 46.7422 81.0321C47.0739 81.1979 47.3335 81.4214 47.521 81.7026V78.9014H49.3705V86.905H47.521V86.0397C47.3479 86.3282 47.0992 86.5589 46.7747 86.732C46.4574 86.905 46.0861 86.9915 45.6607 86.9915C45.1631 86.9915 44.7125 86.8653 44.3087 86.613C43.9049 86.3534 43.584 85.9893 43.3461 85.5206C43.1154 85.0447 43 84.4967 43 83.8766ZM47.521 83.8874C47.521 83.4259 47.3912 83.0618 47.1316 82.795C46.8792 82.5282 46.5692 82.3948 46.2015 82.3948C45.8337 82.3948 45.5201 82.5282 45.2605 82.795C45.0081 83.0546 44.8819 83.4151 44.8819 83.8766C44.8819 84.3381 45.0081 84.7058 45.2605 84.9798C45.5201 85.2466 45.8337 85.38 46.2015 85.38C46.5692 85.38 46.8792 85.2466 47.1316 84.9798C47.3912 84.713 47.521 84.3489 47.521 83.8874Z" fill="#BD4402"/>
</g>
<path d="M96.72 71.04H97.856V61.792H96.72V60.832H102.608C103.739 60.832 104.587 61.088 105.152 61.6C105.717 62.112 106 62.8693 106 63.872C106 64.8747 105.696 65.6587 105.088 66.224C104.48 66.7787 103.616 67.056 102.496 67.056H100.096V71.04H101.616V72H96.72V71.04ZM100.096 66H101.952C102.507 66 102.933 65.856 103.232 65.568C103.541 65.28 103.696 64.8693 103.696 64.336V63.536C103.696 63.0027 103.541 62.592 103.232 62.304C102.933 62.016 102.507 61.872 101.952 61.872H100.096V66ZM109.526 72.192C108.662 72.192 108.022 71.984 107.606 71.568C107.19 71.152 106.982 70.576 106.982 69.84C106.982 69.0293 107.276 68.416 107.862 68C108.46 67.584 109.388 67.376 110.646 67.376H111.782V66.368C111.782 65.7173 111.649 65.2267 111.382 64.896C111.116 64.5547 110.678 64.384 110.07 64.384C109.601 64.384 109.238 64.4533 108.982 64.592V64.656C109.089 64.72 109.19 64.8213 109.286 64.96C109.393 65.088 109.446 65.2693 109.446 65.504C109.446 65.8133 109.35 66.0693 109.158 66.272C108.977 66.464 108.705 66.56 108.342 66.56C108.033 66.56 107.777 66.4587 107.574 66.256C107.382 66.0533 107.286 65.7867 107.286 65.456C107.286 65.2 107.356 64.9547 107.494 64.72C107.644 64.4747 107.862 64.2613 108.15 64.08C108.438 63.888 108.79 63.7387 109.206 63.632C109.633 63.5147 110.124 63.456 110.678 63.456C111.745 63.456 112.545 63.7013 113.078 64.192C113.612 64.672 113.878 65.3493 113.878 66.224V71.056H114.902V71.856C114.742 71.9627 114.529 72.0427 114.262 72.096C113.996 72.16 113.724 72.192 113.446 72.192C112.913 72.192 112.529 72.064 112.294 71.808C112.06 71.5413 111.942 71.2053 111.942 70.8V70.752H111.862C111.788 70.9333 111.692 71.1093 111.574 71.28C111.457 71.4507 111.308 71.6053 111.126 71.744C110.945 71.872 110.721 71.9787 110.454 72.064C110.198 72.1493 109.889 72.192 109.526 72.192ZM110.342 70.912C110.769 70.912 111.116 70.8107 111.382 70.608C111.649 70.4053 111.782 70.064 111.782 69.584V68.24H110.87C110.23 68.24 109.772 68.3573 109.494 68.592C109.228 68.816 109.094 69.1413 109.094 69.568V69.856C109.094 70.2187 109.206 70.4853 109.43 70.656C109.665 70.8267 109.969 70.912 110.342 70.912ZM116.015 71.04H117.039V65.104L116.015 64.896V64.096L119.103 63.456V65.008H119.183C119.258 64.8053 119.354 64.6133 119.471 64.432C119.589 64.24 119.727 64.0747 119.887 63.936C120.058 63.7867 120.25 63.6693 120.463 63.584C120.677 63.4987 120.917 63.456 121.183 63.456C121.695 63.456 122.095 63.5893 122.383 63.856C122.682 64.1227 122.831 64.4907 122.831 64.96C122.831 65.3653 122.73 65.68 122.527 65.904C122.325 66.128 122.042 66.24 121.679 66.24C121.317 66.24 121.039 66.144 120.847 65.952C120.655 65.76 120.559 65.5253 120.559 65.248C120.559 65.0987 120.591 64.9653 120.655 64.848C120.719 64.7307 120.794 64.656 120.879 64.624V64.56C120.837 64.5493 120.762 64.544 120.655 64.544C120.474 64.544 120.293 64.5973 120.111 64.704C119.93 64.8 119.765 64.928 119.615 65.088C119.477 65.2373 119.359 65.408 119.263 65.6C119.178 65.792 119.135 65.984 119.135 66.176V71.04H120.479V72H116.015V71.04ZM126.12 72.192C125.256 72.192 124.616 71.984 124.2 71.568C123.784 71.152 123.576 70.576 123.576 69.84C123.576 69.0293 123.869 68.416 124.456 68C125.053 67.584 125.981 67.376 127.24 67.376H128.376V66.368C128.376 65.7173 128.243 65.2267 127.976 64.896C127.709 64.5547 127.272 64.384 126.664 64.384C126.195 64.384 125.832 64.4533 125.576 64.592V64.656C125.683 64.72 125.784 64.8213 125.88 64.96C125.987 65.088 126.04 65.2693 126.04 65.504C126.04 65.8133 125.944 66.0693 125.752 66.272C125.571 66.464 125.299 66.56 124.936 66.56C124.627 66.56 124.371 66.4587 124.168 66.256C123.976 66.0533 123.88 65.7867 123.88 65.456C123.88 65.2 123.949 64.9547 124.088 64.72C124.237 64.4747 124.456 64.2613 124.744 64.08C125.032 63.888 125.384 63.7387 125.8 63.632C126.227 63.5147 126.717 63.456 127.272 63.456C128.339 63.456 129.139 63.7013 129.672 64.192C130.205 64.672 130.472 65.3493 130.472 66.224V71.056H131.496V71.856C131.336 71.9627 131.123 72.0427 130.856 72.096C130.589 72.16 130.317 72.192 130.04 72.192C129.507 72.192 129.123 72.064 128.888 71.808C128.653 71.5413 128.536 71.2053 128.536 70.8V70.752H128.456C128.381 70.9333 128.285 71.1093 128.168 71.28C128.051 71.4507 127.901 71.6053 127.72 71.744C127.539 71.872 127.315 71.9787 127.048 72.064C126.792 72.1493 126.483 72.192 126.12 72.192ZM126.936 70.912C127.363 70.912 127.709 70.8107 127.976 70.608C128.243 70.4053 128.376 70.064 128.376 69.584V68.24H127.464C126.824 68.24 126.365 68.3573 126.088 68.592C125.821 68.816 125.688 69.1413 125.688 69.568V69.856C125.688 70.2187 125.8 70.4853 126.024 70.656C126.259 70.8267 126.563 70.912 126.936 70.912ZM135.985 72.192C135.473 72.192 135.009 72.0907 134.593 71.888C134.188 71.6853 133.836 71.3973 133.537 71.024C133.249 70.64 133.025 70.1813 132.865 69.648C132.716 69.104 132.641 68.496 132.641 67.824C132.641 67.152 132.716 66.5493 132.865 66.016C133.025 65.472 133.249 65.0133 133.537 64.64C133.836 64.256 134.188 63.9627 134.593 63.76C135.009 63.5573 135.473 63.456 135.985 63.456C136.593 63.456 137.084 63.6 137.457 63.888C137.83 64.176 138.097 64.5067 138.257 64.88H138.337V61.488L137.313 61.28V60.48L140.433 59.84V70.544L141.457 70.752V71.552L138.337 72.192V70.752H138.257C138.097 71.136 137.825 71.472 137.441 71.76C137.068 72.048 136.582 72.192 135.985 72.192ZM136.673 70.88C137.121 70.88 137.51 70.7467 137.841 70.48C138.172 70.2027 138.337 69.8293 138.337 69.36V66.288C138.337 65.8187 138.172 65.4507 137.841 65.184C137.51 64.9067 137.121 64.768 136.673 64.768C136.14 64.768 135.708 64.9493 135.377 65.312C135.046 65.6747 134.881 66.1867 134.881 66.848V68.8C134.881 69.4613 135.046 69.9733 135.377 70.336C135.708 70.6987 136.14 70.88 136.673 70.88ZM146.53 71.136C147.106 71.136 147.533 70.96 147.81 70.608C148.098 70.256 148.242 69.76 148.242 69.12V66.528C148.242 65.888 148.098 65.392 147.81 65.04C147.533 64.688 147.106 64.512 146.53 64.512C145.954 64.512 145.522 64.688 145.234 65.04C144.957 65.392 144.818 65.888 144.818 66.528V69.12C144.818 69.76 144.957 70.256 145.234 70.608C145.522 70.96 145.954 71.136 146.53 71.136ZM146.53 72.192C145.933 72.192 145.389 72.096 144.898 71.904C144.418 71.7013 144.002 71.4133 143.65 71.04C143.309 70.656 143.042 70.1973 142.85 69.664C142.658 69.12 142.562 68.5067 142.562 67.824C142.562 67.1413 142.658 66.5333 142.85 66C143.042 65.456 143.309 64.9973 143.65 64.624C144.002 64.24 144.418 63.952 144.898 63.76C145.389 63.5573 145.933 63.456 146.53 63.456C147.127 63.456 147.666 63.5573 148.146 63.76C148.637 63.952 149.053 64.24 149.394 64.624C149.746 64.9973 150.018 65.456 150.21 66C150.402 66.5333 150.498 67.1413 150.498 67.824C150.498 68.5067 150.402 69.12 150.21 69.664C150.018 70.1973 149.746 70.656 149.394 71.04C149.053 71.4133 148.637 71.7013 148.146 71.904C147.666 72.096 147.127 72.192 146.53 72.192ZM151.179 71.04H152.075L154.331 68L151.979 64.608H151.227V63.648H155.419V64.608H154.459L156.011 66.848H156.091L157.643 64.608H156.715V63.648H159.819V64.608H158.923L156.683 67.632L159.099 71.04H159.851V72H155.627V71.04H156.587L155.003 68.784H154.923L153.339 71.04H154.283V72H151.179V71.04ZM160.908 71.04H162.044V61.792H160.908V60.832H166.796C167.926 60.832 168.774 61.088 169.34 61.6C169.905 62.112 170.188 62.8693 170.188 63.872C170.188 64.8747 169.884 65.6587 169.276 66.224C168.668 66.7787 167.804 67.056 166.684 67.056H164.284V71.04H165.804V72H160.908V71.04ZM164.284 66H166.14C166.694 66 167.121 65.856 167.42 65.568C167.729 65.28 167.884 64.8693 167.884 64.336V63.536C167.884 63.0027 167.729 62.592 167.42 62.304C167.121 62.016 166.694 61.872 166.14 61.872H164.284V66ZM173.548 62.32C173.153 62.32 172.844 62.208 172.62 61.984C172.407 61.76 172.3 61.4667 172.3 61.104V61.024C172.3 60.6613 172.407 60.368 172.62 60.144C172.844 59.92 173.153 59.808 173.548 59.808C173.943 59.808 174.247 59.92 174.46 60.144C174.684 60.368 174.796 60.6613 174.796 61.024V61.104C174.796 61.4667 174.684 61.76 174.46 61.984C174.247 62.208 173.943 62.32 173.548 62.32ZM171.484 71.04H172.508V65.104L171.484 64.896V64.096L174.604 63.456V71.04H175.628V72H171.484V71.04ZM96.224 87.04H97.04L100.56 76.832H102.56L106.08 87.04H106.896V88H102.464V87.04H103.792L102.96 84.528H99.104L98.272 87.04H99.6V88H96.224V87.04ZM99.392 83.52H102.672L101.072 78.56H100.992L99.392 83.52ZM111.578 88.192C110.927 88.192 110.351 88.0853 109.85 87.872C109.359 87.648 108.943 87.344 108.602 86.96C108.271 86.5653 108.015 86.1013 107.834 85.568C107.663 85.024 107.578 84.4373 107.578 83.808C107.578 83.1253 107.684 82.512 107.898 81.968C108.111 81.424 108.404 80.9707 108.778 80.608C109.151 80.2347 109.594 79.952 110.106 79.76C110.618 79.5573 111.172 79.456 111.77 79.456C112.719 79.456 113.455 79.6533 113.978 80.048C114.5 80.4427 114.762 80.944 114.762 81.552C114.762 81.936 114.655 82.24 114.442 82.464C114.239 82.688 113.951 82.8 113.578 82.8C113.204 82.8 112.916 82.6987 112.714 82.496C112.522 82.2933 112.426 82.032 112.426 81.712C112.426 81.456 112.49 81.2373 112.618 81.056C112.756 80.8747 112.922 80.7413 113.114 80.656V80.576C112.996 80.5227 112.852 80.48 112.682 80.448C112.522 80.416 112.303 80.4 112.026 80.4C111.354 80.4 110.82 80.624 110.426 81.072C110.031 81.52 109.834 82.128 109.834 82.896V84.416C109.834 85.1733 110.015 85.76 110.378 86.176C110.74 86.592 111.242 86.8 111.882 86.8C112.49 86.8 112.97 86.6613 113.322 86.384C113.684 86.1067 113.956 85.7707 114.138 85.376L114.906 85.856C114.81 86.1227 114.671 86.3947 114.49 86.672C114.319 86.9493 114.095 87.2 113.818 87.424C113.551 87.648 113.231 87.8347 112.858 87.984C112.484 88.1227 112.058 88.192 111.578 88.192ZM118.464 88.192C117.6 88.192 116.96 87.984 116.544 87.568C116.128 87.152 115.92 86.576 115.92 85.84C115.92 85.0293 116.213 84.416 116.8 84C117.397 83.584 118.325 83.376 119.584 83.376H120.72V82.368C120.72 81.7173 120.586 81.2267 120.32 80.896C120.053 80.5547 119.616 80.384 119.008 80.384C118.538 80.384 118.176 80.4533 117.92 80.592V80.656C118.026 80.72 118.128 80.8213 118.224 80.96C118.33 81.088 118.384 81.2693 118.384 81.504C118.384 81.8133 118.288 82.0693 118.096 82.272C117.914 82.464 117.642 82.56 117.28 82.56C116.97 82.56 116.714 82.4587 116.512 82.256C116.32 82.0533 116.224 81.7867 116.224 81.456C116.224 81.2 116.293 80.9547 116.432 80.72C116.581 80.4747 116.8 80.2613 117.088 80.08C117.376 79.888 117.728 79.7387 118.144 79.632C118.57 79.5147 119.061 79.456 119.616 79.456C120.682 79.456 121.482 79.7013 122.016 80.192C122.549 80.672 122.816 81.3493 122.816 82.224V87.056H123.84V87.856C123.68 87.9627 123.466 88.0427 123.2 88.096C122.933 88.16 122.661 88.192 122.384 88.192C121.85 88.192 121.466 88.064 121.232 87.808C120.997 87.5413 120.88 87.2053 120.88 86.8V86.752H120.8C120.725 86.9333 120.629 87.1093 120.512 87.28C120.394 87.4507 120.245 87.6053 120.064 87.744C119.882 87.872 119.658 87.9787 119.392 88.064C119.136 88.1493 118.826 88.192 118.464 88.192ZM119.28 86.912C119.706 86.912 120.053 86.8107 120.32 86.608C120.586 86.4053 120.72 86.064 120.72 85.584V84.24H119.808C119.168 84.24 118.709 84.3573 118.432 84.592C118.165 84.816 118.032 85.1413 118.032 85.568V85.856C118.032 86.2187 118.144 86.4853 118.368 86.656C118.602 86.8267 118.906 86.912 119.28 86.912ZM128.329 88.192C127.817 88.192 127.353 88.0907 126.937 87.888C126.532 87.6853 126.18 87.3973 125.881 87.024C125.593 86.64 125.369 86.1813 125.209 85.648C125.06 85.104 124.985 84.496 124.985 83.824C124.985 83.152 125.06 82.5493 125.209 82.016C125.369 81.472 125.593 81.0133 125.881 80.64C126.18 80.256 126.532 79.9627 126.937 79.76C127.353 79.5573 127.817 79.456 128.329 79.456C128.937 79.456 129.428 79.6 129.801 79.888C130.174 80.176 130.441 80.5067 130.601 80.88H130.681V77.488L129.657 77.28V76.48L132.777 75.84V86.544L133.801 86.752V87.552L130.681 88.192V86.752H130.601C130.441 87.136 130.169 87.472 129.785 87.76C129.412 88.048 128.926 88.192 128.329 88.192ZM129.017 86.88C129.465 86.88 129.854 86.7467 130.185 86.48C130.516 86.2027 130.681 85.8293 130.681 85.36V82.288C130.681 81.8187 130.516 81.4507 130.185 81.184C129.854 80.9067 129.465 80.768 129.017 80.768C128.484 80.768 128.052 80.9493 127.721 81.312C127.39 81.6747 127.225 82.1867 127.225 82.848V84.8C127.225 85.4613 127.39 85.9733 127.721 86.336C128.052 86.6987 128.484 86.88 129.017 86.88ZM138.906 88.192C138.266 88.192 137.695 88.0853 137.194 87.872C136.703 87.6587 136.287 87.36 135.946 86.976C135.604 86.5813 135.343 86.1173 135.162 85.584C134.991 85.04 134.906 84.448 134.906 83.808C134.906 83.1467 134.996 82.5493 135.178 82.016C135.37 81.472 135.636 81.0133 135.978 80.64C136.319 80.256 136.724 79.9627 137.194 79.76C137.674 79.5573 138.202 79.456 138.778 79.456C139.354 79.456 139.871 79.552 140.33 79.744C140.799 79.9253 141.194 80.1867 141.514 80.528C141.844 80.8693 142.095 81.28 142.266 81.76C142.447 82.2293 142.538 82.7573 142.538 83.344V83.84H137.162V84.416C137.162 85.184 137.359 85.776 137.754 86.192C138.159 86.5973 138.687 86.8 139.338 86.8C139.935 86.8 140.415 86.6667 140.778 86.4C141.14 86.1333 141.407 85.8027 141.578 85.408L142.362 85.888C142.266 86.1547 142.122 86.4267 141.93 86.704C141.748 86.9707 141.514 87.216 141.226 87.44C140.948 87.664 140.618 87.8453 140.234 87.984C139.85 88.1227 139.407 88.192 138.906 88.192ZM137.162 82.912H140.362V82.704C140.362 81.936 140.223 81.3707 139.946 81.008C139.679 80.6453 139.29 80.464 138.778 80.464C138.266 80.464 137.866 80.6453 137.578 81.008C137.3 81.36 137.162 81.92 137.162 82.688V82.912ZM143.812 87.04H144.836V81.104L143.812 80.896V80.096L146.9 79.456V81.008H146.98C147.055 80.8053 147.156 80.6133 147.284 80.432C147.423 80.24 147.588 80.0747 147.78 79.936C147.972 79.7867 148.196 79.6693 148.452 79.584C148.719 79.4987 149.018 79.456 149.348 79.456C150.052 79.456 150.602 79.5893 150.996 79.856C151.391 80.1227 151.663 80.5227 151.812 81.056H151.876C151.962 80.8533 152.074 80.656 152.212 80.464C152.362 80.272 152.538 80.1013 152.74 79.952C152.954 79.8027 153.194 79.6853 153.46 79.6C153.738 79.504 154.052 79.456 154.404 79.456C155.386 79.456 156.079 79.7173 156.484 80.24C156.9 80.752 157.108 81.5253 157.108 82.56V87.04H158.132V88H154.084V87.04H155.012V82.656C155.012 82.0267 154.9 81.5733 154.676 81.296C154.452 81.008 154.084 80.864 153.572 80.864C153.38 80.864 153.188 80.8907 152.996 80.944C152.815 80.9973 152.65 81.0827 152.5 81.2C152.362 81.3067 152.244 81.4507 152.148 81.632C152.063 81.8027 152.02 82.0053 152.02 82.24V87.04H152.948V88H148.996V87.04H149.924V82.656C149.924 82.0267 149.812 81.5733 149.588 81.296C149.375 81.008 149.018 80.864 148.516 80.864C148.314 80.864 148.116 80.8907 147.924 80.944C147.732 80.9973 147.562 81.0827 147.412 81.2C147.274 81.3067 147.156 81.4507 147.06 81.632C146.975 81.8027 146.932 82.0053 146.932 82.24V87.04H147.86V88H143.812V87.04ZM160.359 91.392C159.751 91.392 159.287 91.2427 158.967 90.944C158.647 90.656 158.487 90.304 158.487 89.888C158.487 89.536 158.583 89.2587 158.775 89.056C158.977 88.864 159.255 88.768 159.607 88.768C159.937 88.768 160.193 88.8693 160.375 89.072C160.567 89.2747 160.663 89.5253 160.663 89.824C160.663 89.9733 160.631 90.1067 160.567 90.224C160.513 90.352 160.455 90.4427 160.391 90.496L160.407 90.592C160.46 90.6027 160.545 90.608 160.663 90.608C161.217 90.608 161.713 90.0533 162.151 88.944L162.375 88.384L159.287 80.608H158.503V79.648H162.487V80.608H161.511L163.351 85.824H163.431L165.271 80.608H164.295V79.648H167.239V80.608H166.471L163.111 89.008C162.993 89.296 162.855 89.584 162.695 89.872C162.545 90.16 162.359 90.416 162.135 90.64C161.921 90.864 161.665 91.0453 161.367 91.184C161.079 91.3227 160.743 91.392 160.359 91.392Z" fill="#FFFAE9"/>
<defs>
<clipPath id="clip0_1_102">
<rect width="50" height="50" fill="white" transform="translate(40 40)"/>
</clipPath>
</defs>
</svg>
